<svg version="1.1" viewBox="0.0 0.0 720.0 720.0" fill="none" stroke="none" stroke-linecap="square" stroke-miterlimit="10" xmlns:xlink="http://www.w3.org/1999/xlink" xmlns="http://www.w3.org/2000/svg"><clipPath id="p.0"><path d="m0 0l720.0 0l0 720.0l-720.0 0l0 -720.0z" clip-rule="nonzero"/></clipPath><g clip-path="url(#p.0)"><path fill="#000000" fill-opacity="0.0" d="m0 0l720.0 0l0 720.0l-720.0 0z" fill-rule="evenodd"/><path fill="#374151" d="m720.0 360.0l-178.63641 37.84433l0 -75.68866zm-105.466675 -254.56667l-99.53613 153.08873l-53.519257 -53.51924zm-254.53333 -105.433334l37.84433 178.63641l-75.68866 0zm-254.56667 105.433334l153.08873 99.56949l-53.51924 53.51924zm-105.433334 254.56667l178.63641 -37.84433l0 75.68866zm105.433334 254.53333l99.56949 -153.05539l53.51924 53.519257zm254.56667 105.466675l-37.84433 -178.63641l75.68866 0zm254.53333 -105.466675l-153.05539 -99.53613l53.519257 -53.519257zm-386.38693 -254.53333c0 -72.82074 59.032867 -131.8536 131.8536 -131.8536c72.82074 0 131.8536 59.032867 131.8536 131.8536c0 72.82074 -59.032867 131.8536 -131.8536 131.8536c-72.82074 0 -131.8536 -59.032867 -131.8536 -131.8536z" fill-rule="evenodd"/></g></svg>